PathFileType	4	(X/Y/Z)	./resultDataOpenSim/trcMotMarkerGrf/sub09/qtm-03-02.trc
DataRate	CameraRate	NumFrames	NumMarkers	Units	OrigDataRate	OrigDataStartFrame	OrigNumFrames
250.000000	250.000000	12	24	m	250.000000	373	496
Frame#	Time	L.Toe.Tip			R.Toe.Tip			L.Ankle.Lat			R.Ankle.Lat			L.Ankle.Med			R.Ankle.Med			L.Heel			R.Heel			L.Knee.Lat			R.Knee.Lat			L.Knee.Med			R.Knee.Med			L.Thigh.Upper			R.Thigh.Upper			L.ASIS			R.ASIS			V.Sacral			L.Acromium			R.Acromium			C7			L.Elbow			R.Elbow			L.Wrist.Lat			R.Wrist.Lat
		X1	Y1	Z1	X2	Y2	Z2	X3	Y3	Z3	X4	Y4	Z4	X5	Y5	Z5	X6	Y6	Z6	X7	Y7	Z7	X8	Y8	Z8	X9	Y9	Z9	X10	Y10	Z10	X11	Y11	Z11	X12	Y12	Z12	X13	Y13	Z13	X14	Y14	Z14	X15	Y15	Z15	X16	Y16	Z16	X17	Y17	Z17	X18	Y18	Z18	X19	Y19	Z19	X20	Y20	Z20	X21	Y21	Z21	X22	Y22	Z22	X23	Y23	Z23	X24	Y24	Z24

373	1.488	0.8132928	0.1255942	0.0011680553	0.99624633	0.03907193	0.14201712	0.73356152	0.25599777	-0.029292538	0.84945492	0.055866701	0.17521957	0.76358241	0.2467774	0.064237407	0.85896887	0.092532976	0.082905231	0.65656782	0.27499529	0.019564311	0.77909288	0.037311049	0.12748664	1.0497853	0.51062415	-0.057048532	0.95977514	0.50119121	0.22588666	1.0515449	0.50146439	0.0688869	0.93859267	0.4894672	0.10013207	0.88373696	0.8879642	-0.087365299	0.88075052	0.90199672	0.28297181	0.95338453	0.97673519	-0.029802137	0.96416365	0.98754807	0.20842186	0.78951775	1.0355608	0.089615957	0.94063695	1.4366478	-0.083548179	0.92602241	1.4469625	0.246864	0.86624954	1.4889578	0.080957144	0.80234072	1.0928182	-0.1345847	0.8032406	1.0982956	0.34017585	0.93594568	0.86717966	-0.17032966	1.0027582	0.90531827	0.33176137
374	1.492	0.8298947	0.12381222	0.00063541253	0.99628483	0.039038786	0.14197742	0.74713369	0.2521694	-0.02905793	0.84957196	0.055983984	0.17508729	0.77812615	0.24328666	0.064210929	0.85913865	0.092610733	0.082766627	0.66972517	0.26931172	0.020013808	0.77924121	0.037505875	0.12744626	1.0587162	0.51289956	-0.056859735	0.96119549	0.5010565	0.22588568	1.0609878	0.50382836	0.069071505	0.93983525	0.48942456	0.1001112	0.8893138	0.88890543	-0.087695777	0.88549523	0.90244926	0.28287202	0.9586206	0.97768218	-0.029853136	0.9692233	0.98806378	0.2084083	0.79461888	1.0361816	0.0896442	0.94504427	1.4372561	-0.083769854	0.93108704	1.4478089	0.24667271	0.87095536	1.4895982	0.080886666	0.80593329	1.0938459	-0.13449283	0.80883847	1.0989187	0.34052141	0.93845632	0.86778363	-0.17158425	1.009274	0.90688811	0.33088327
375	1.496	0.84655451	0.12196693	0.00021460117	0.99630433	0.038988468	0.14194489	0.76086538	0.24813572	-0.028884512	0.84969484	0.056099509	0.17495203	0.79272693	0.23967974	0.064179886	0.85930886	0.092718224	0.082686474	0.68311006	0.26344458	0.020301322	0.77949449	0.037623291	0.12751154	1.0674796	0.51514369	-0.056690632	0.96260856	0.50093773	0.22589399	1.0711284	0.50629469	0.069481782	0.94104963	0.48938695	0.10016764	0.89486985	0.88979641	-0.087969025	0.88941785	0.90286477	0.28295841	0.9638215	0.97857216	-0.029906514	0.9742779	0.98854458	0.20838223	0.79966815	1.0367294	0.089632787	0.94945418	1.4378111	-0.084001658	0.93614687	1.4485968	0.24647792	0.87566836	1.4901976	0.080810557	0.80955748	1.0948153	-0.13441229	0.81440963	1.0994873	0.34085628	0.94100152	0.86834194	-0.17283366	1.0157679	0.90838765	0.33000839
376	1.5	0.86335694	0.12009742	-0.00011090336	0.99632563	0.038943088	0.14191436	0.77470513	0.24391547	-0.028737612	0.84980597	0.056212516	0.17482059	0.80714392	0.2359631	0.064215804	0.85959097	0.09285525	0.08261785	0.696698	0.25736531	0.020476907	0.77980282	0.037716159	0.12763045	1.0760692	0.5173229	-0.056528671	0.96397406	0.50079916	0.22589444	1.0818139	0.50880667	0.070018748	0.94240479	0.48931817	0.10035499	0.90036235	0.89062726	-0.088165237	0.89212492	0.90322292	0.28330738	0.96896449	0.97940911	-0.029953378	0.97932402	0.98898933	0.20834724	0.80467578	1.0372064	0.089586617	0.95386554	1.4383165	-0.084232494	0.94119912	1.4493259	0.24627689	0.880388	1.4907509	0.080727073	0.81322558	1.0957194	-0.13433508	0.81995773	1.1000097	0.34118851	0.94357919	0.86884791	-0.17407892	1.022264	0.90982481	0.32914342
377	1.504	0.88044216	0.11820021	-0.00037725234	0.99639781	0.03893063	0.14186652	0.78863416	0.2395185	-0.02859756	0.84989795	0.056324869	0.17469634	0.82143323	0.23213667	0.064292385	0.85989955	0.092991665	0.08251311	0.71041069	0.25106968	0.020622388	0.78003948	0.037845171	0.1276677	1.0844621	0.51938937	-0.056395258	0.96530538	0.50064208	0.22591294	1.0924783	0.51125975	0.070519632	0.94391985	0.48922149	0.10064313	0.9057992	0.89138899	-0.088313455	0.89420958	0.90350912	0.28378695	0.97405966	0.98019651	-0.030000407	0.98435534	0.9893949	0.20830251	0.80963312	1.0376024	0.089504789	0.95827766	1.4387742	-0.084456401	0.94624912	1.4499966	0.24607127	0.88510588	1.4912509	0.080636466	0.81695267	1.0965654	-0.13423927	0.8254975	1.1004812	0.34151345	0.9461921	0.86929841	-0.17531726	1.0287845	0.91120614	0.32829627
378	1.508	0.89785387	0.11622642	-0.00061157437	0.99655274	0.038956039	0.14178992	0.80268671	0.23494482	-0.028476481	0.84997351	0.056441926	0.17457571	0.83572233	0.22821292	0.064360765	0.8599943	0.093098012	0.082356992	0.72422424	0.24455698	0.020753526	0.78013344	0.038022207	0.12753946	1.0926457	0.52129625	-0.056322845	0.96661909	0.50047779	0.22596566	1.1023075	0.51354391	0.070796029	0.94549035	0.48909675	0.10091782	0.91119766	0.89207863	-0.088448119	0.89694258	0.90376004	0.28412288	0.97915805	0.98092731	-0.030066103	0.98936943	0.98976295	0.20824948	0.81452113	1.0378964	0.089383699	0.96269119	1.439185	-0.084679722	0.95130827	1.4506084	0.24586722	0.88982284	1.4917047	0.080538847	0.82076046	1.0973756	-0.13408799	0.83104874	1.1008899	0.34181594	0.94884963	0.8696911	-0.17654371	1.0353138	0.91252704	0.32746557
379	1.512	0.91545055	0.11415387	-0.00081512048	0.99676283	0.038996419	0.14169948	0.8168967	0.2302032	-0.028389971	0.85004108	0.056569893	0.17445317	0.85004893	0.22421655	0.064411317	0.85985357	0.093197671	0.082174897	0.73820906	0.23782169	0.020811933	0.78011356	0.038225664	0.12727448	1.1006501	0.52303966	-0.056307966	0.96792151	0.50030959	0.22605047	1.110872	0.515606	0.070765084	0.94701147	0.48894161	0.10110311	0.91655924	0.89269236	-0.088584867	0.90097699	0.90404521	0.28416734	0.9843419	0.98158752	-0.030182108	0.99436486	0.9901	0.20819338	0.81937116	1.0380875	0.089240809	0.96710522	1.4395486	-0.084910278	0.95638208	1.4511614	0.24566831	0.89455218	1.4921241	0.080433235	0.82466232	1.0981679	-0.13385627	0.83664298	1.1012367	0.34209706	0.95155514	0.87003081	-0.17775439	1.0418031	0.91377407	0.32664078
380	1.516	0.93304141	0.11201466	-0.00097178243	0.99694723	0.039007716	0.14162346	0.83126658	0.2253172	-0.02833632	0.85011024	0.056709465	0.17432913	0.86438651	0.22016337	0.064465764	0.85973447	0.093338031	0.082015031	0.75242747	0.23087309	0.020764049	0.78005745	0.038453403	0.12697233	1.1085248	0.52465974	-0.056316783	0.96921932	0.50014269	0.22616496	1.1185066	0.51747439	0.070516278	0.94844798	0.48877955	0.10121451	0.92187547	0.89322278	-0.088723343	0.90598503	0.90438131	0.28397768	0.98966446	0.98216972	-0.030374611	0.9993362	0.99041073	0.2081356	0.8242734	1.0382113	0.089111495	0.971519	1.4398633	-0.085147485	0.9614633	1.4516567	0.24546986	0.89929618	1.492502	0.080318064	0.82862927	1.098926	-0.13359043	0.84232911	1.1015412	0.3423861	0.95429783	0.87033324	-0.17894589	1.0482204	0.91494104	0.32581359
381	1.52	0.95055376	0.10985043	-0.0010605031	0.99704177	0.038960525	0.14157803	0.84578417	0.22031084	-0.028304145	0.85018499	0.056854647	0.17421045	0.87874898	0.21603752	0.064544616	0.85981349	0.093520337	0.081900024	0.76686437	0.22374643	0.02064924	0.78003629	0.038712771	0.12672659	1.1162919	0.52619461	-0.056328731	0.97051993	0.49999337	0.22630868	1.125846	0.51920441	0.070200178	0.94982157	0.48864567	0.10130034	0.92714105	0.89366928	-0.088860683	0.91137417	0.90472119	0.2836748	0.99506921	0.98268114	-0.03062474	1.0042864	0.99069308	0.20807591	0.82928272	1.0383091	0.089011339	0.9759358	1.4401281	-0.085387967	0.9665411	1.4520957	0.24526455	0.90404642	1.492818	0.080191449	0.83260231	1.0996015	-0.1333892	0.84814392	1.101822	0.34271868	0.95706646	0.87060691	-0.18011724	1.0545712	0.91603337	0.32498361
382	1.524	0.96803902	0.10768174	-0.0010751243	0.99705421	0.038880208	0.14156289	0.86044895	0.21519273	-0.028290392	0.85026116	0.056999357	0.17410377	0.89323221	0.21180927	0.064642489	0.86003893	0.093709508	0.081813711	0.78148098	0.21648901	0.020521276	0.78007225	0.038985772	0.1265566	1.1239339	0.52764309	-0.056350463	0.97182545	0.49987107	0.2264753	1.1332206	0.52082079	0.069900548	0.95116386	0.48855613	0.10138929	0.93236125	0.89404008	-0.088995431	0.91678742	0.90502738	0.28334702	1.00042	0.98313358	-0.03086988	1.0092334	0.99094148	0.20801945	0.83436346	1.0383912	0.088918424	0.98035994	1.4403426	-0.085633022	0.9716152	1.4524801	0.24505307	0.90879972	1.4930678	0.080052569	0.83655219	1.1001595	-0.13330474	0.85406456	1.1020764	0.34309996	0.95986494	0.87084041	-0.18127171	1.0608773	0.91705404	0.32415493
383	1.528	0.98558893	0.10551275	-0.0010394935	0.99702175	0.03881546	0.14157784	0.87527315	0.20996021	-0.028302882	0.8503346	0.057143025	0.17401096	0.90789528	0.20748128	0.064735768	0.86029753	0.093885275	0.081734311	0.79626868	0.20914079	0.02039954	0.78013412	0.039250464	0.12641146	1.1314168	0.52897218	-0.056400347	0.97313505	0.49976466	0.22665741	1.1405983	0.52231855	0.06962341	0.95249192	0.488508	0.10148383	0.93754774	0.89434195	-0.089129814	0.92210642	0.90530113	0.28304596	1.0056351	0.98352888	-0.031061038	1.0141911	0.99115329	0.2079701	0.83945631	1.0384486	0.088801706	0.98479209	1.4405073	-0.085884519	0.97669277	1.4528103	0.24484175	0.91355713	1.4932653	0.07990557	0.84049777	1.1006083	-0.13331154	0.86001673	1.1022855	0.34349696	0.96270612	0.8710201	-0.18241253	1.0671555	0.91799766	0.32333168
384	1.532	1.0032611	0.10334462	-0.00098898108	0.99696716	0.038791831	0.14163043	0.89026452	0.20461943	-0.028347614	0.85040671	0.05729025	0.17393077	0.92268777	0.2030806	0.064816396	0.86052623	0.09404629	0.081659099	0.81123501	0.20172469	0.020286191	0.78016677	0.039516661	0.1262214	1.1387135	0.53015438	-0.056492829	0.97444684	0.49965637	0.22685125	1.1478417	0.52368373	0.069344641	0.95381503	0.48850035	0.10157803	0.94271024	0.89457728	-0.089270134	0.92730528	0.9055499	0.28279349	1.0107346	0.98386615	-0.031196908	1.0191558	0.99132927	0.20792507	0.84453639	1.0384825	0.088650603	0.98923151	1.4406243	-0.086138095	0.98177452	1.4530853	0.24463138	0.91832246	1.4934209	0.079759812	0.84447285	1.1009805	-0.1333594	0.86592715	1.1024334	0.34386779	0.96559713	0.87114622	-0.18354258	1.0734105	0.9188601	0.32251599
